<svg width="492" height="128" viewBox="0 0 492 128" fill="none" xmlns="http://www.w3.org/2000/svg">
<g clip-path="url(#clip0_948_654)">
<path fill-rule="evenodd" clip-rule="evenodd" d="M178.149 39.5199V98.3628C178.149 99.0828 177.565 99.6674 176.844 99.6674H170.925C170.205 99.6674 169.621 99.0828 169.621 98.3628V39.5199H155.234C154.514 39.5199 153.929 38.9353 153.929 38.2153V32.5722C153.929 31.8522 154.514 31.2676 155.234 31.2676H192.535C193.256 31.2676 193.84 31.8522 193.84 32.5722V38.2153C193.84 38.9353 193.256 39.5199 192.535 39.5199H178.149Z" fill="white"/>
<path fill-rule="evenodd" clip-rule="evenodd" d="M243.979 99.0644L226.515 71.5875H220.416V98.3628C220.416 99.0828 219.832 99.6674 219.111 99.6674H213.193C212.472 99.6674 211.888 99.0828 211.888 98.3628V32.5722C211.888 31.8522 212.472 31.2676 213.193 31.2676H234.069C236.485 31.2676 238.751 31.7231 240.869 32.6338C242.982 33.5446 244.831 34.7877 246.416 36.3753C248.001 37.9569 249.249 39.8154 250.157 41.9446C251.067 44.08 251.523 46.3507 251.523 48.7692V54.0861C251.523 56.5045 251.067 58.7753 250.157 60.9106C249.249 63.0399 248.001 64.8984 246.416 66.4799C244.831 68.0676 242.982 69.3106 240.869 70.2214C239.433 70.8368 237.928 71.2491 236.354 71.446L253.017 97.6613C253.273 98.0674 253.289 98.5721 253.06 98.9905C252.83 99.409 252.392 99.6674 251.916 99.6674H245.08C244.633 99.6674 244.218 99.4398 243.979 99.0644ZM242.995 48.7692C242.995 47.483 242.758 46.2892 242.277 45.1815C241.792 44.0615 241.131 43.0769 240.296 42.2276C239.465 41.3846 238.493 40.72 237.38 40.2338C236.272 39.7538 235.075 39.5199 233.793 39.5199H220.416V63.3353H233.793C235.075 63.3353 236.272 63.1014 237.38 62.6214C238.493 62.1353 239.465 61.4707 240.296 60.6276C241.131 59.7784 241.792 58.7937 242.277 57.6737C242.758 56.566 242.995 55.3722 242.995 54.0861V48.7692Z" fill="white"/>
<path fill-rule="evenodd" clip-rule="evenodd" d="M274.113 98.3628V32.5722C274.113 31.8522 274.698 31.2676 275.418 31.2676H312.445C313.165 31.2676 313.75 31.8522 313.75 32.5722V38.2153C313.75 38.9353 313.165 39.5199 312.445 39.5199H282.643V61.366H306.525C307.245 61.366 307.83 61.9445 307.83 62.6706V68.3137C307.83 69.0337 307.245 69.6183 306.525 69.6183H282.643V91.4152H312.445C313.165 91.4152 313.75 91.9998 313.75 92.7198V98.3628C313.75 99.0828 313.165 99.6674 312.445 99.6674H275.418C274.698 99.6674 274.113 99.0828 274.113 98.3628Z" fill="white"/>
<path fill-rule="evenodd" clip-rule="evenodd" d="M365.75 76.6521V32.5722C365.75 31.8522 366.334 31.2676 367.054 31.2676H372.974C373.694 31.2676 374.273 31.8522 374.273 32.5722V98.3628C374.273 99.0828 373.694 99.6674 372.974 99.6674H369.855C369.387 99.6674 368.95 99.4213 368.716 99.009L343.172 54.4061V98.3628C343.172 99.0828 342.587 99.6674 341.867 99.6674H335.947C335.227 99.6674 334.642 99.0828 334.642 98.3628V32.5722C334.642 31.8522 335.227 31.2676 335.947 31.2676H339.018C339.485 31.2676 339.922 31.5138 340.15 31.92L365.75 76.6521Z" fill="white"/>
<path fill-rule="evenodd" clip-rule="evenodd" d="M417.503 39.5199V98.3628C417.503 99.0828 416.925 99.6674 416.205 99.6674H410.285C409.565 99.6674 408.98 99.0828 408.98 98.3628V39.5199H394.593C393.873 39.5199 393.288 38.9353 393.288 38.2153V32.5722C393.288 31.8522 393.873 31.2676 394.593 31.2676H431.891C432.611 31.2676 433.196 31.8522 433.196 32.5722V38.2153C433.196 38.9353 432.611 39.5199 431.891 39.5199H417.503Z" fill="white"/>
<path fill-rule="evenodd" clip-rule="evenodd" d="M490.882 83.1315C490.882 85.5438 490.42 87.8146 489.515 89.9315C488.605 92.0423 487.356 93.8946 485.774 95.4761C484.186 97.0638 482.34 98.313 480.229 99.2176C478.106 100.128 475.842 100.584 473.423 100.584H468.746C466.334 100.584 464.057 100.128 461.928 99.2176C459.793 98.313 457.94 97.0638 456.353 95.4761C454.771 93.8946 453.522 92.0423 452.611 89.9315C451.7 87.8146 451.245 85.5438 451.245 83.1315V47.8024C451.245 45.3839 451.7 43.1194 452.611 41.0025C453.522 38.8856 454.771 37.0394 456.353 35.4579C457.94 33.8702 459.793 32.621 461.928 31.7164C464.057 30.8056 466.334 30.3502 468.746 30.3502H473.423C475.842 30.3502 478.106 30.8056 480.229 31.7164C482.34 32.621 484.186 33.8702 485.774 35.4579C487.356 37.0394 488.605 38.8856 489.515 41.0025C490.42 43.1194 490.882 45.3839 490.882 47.8024V83.1315ZM482.352 47.8024C482.352 46.5224 482.112 45.3224 481.632 44.2147C481.152 43.1009 480.494 42.1286 479.663 41.2917C478.826 40.4609 477.854 39.8025 476.74 39.3163C475.626 38.8363 474.432 38.6025 473.152 38.6025H469.023C467.737 38.6025 466.543 38.8363 465.436 39.3163C464.316 39.8025 463.331 40.4671 462.482 41.2978C461.639 42.1286 460.974 43.1009 460.494 44.2147C460.014 45.3224 459.774 46.5224 459.774 47.8024V83.1315C459.774 84.4115 460.014 85.6116 460.494 86.7193C460.974 87.8331 461.639 88.8177 462.488 89.6607C463.337 90.51 464.316 91.1746 465.436 91.6607C466.543 92.1407 467.737 92.3808 469.023 92.3808H473.152C474.432 92.3808 475.626 92.1407 476.74 91.6607C477.848 91.1746 478.82 90.5161 479.651 89.6731C480.488 88.8238 481.146 87.8393 481.632 86.7193C482.112 85.6116 482.352 84.4115 482.352 83.1315V47.8024Z" fill="white"/>
<path fill-rule="evenodd" clip-rule="evenodd" d="M0.00756836 20.8022V-0.00201416H6.35327V5.5707H13.3812V10.3995H20.068V5.19934H26.7547V-0.00201416H33.4415V5.19934H40.1283V10.3995H46.8151V5.19934H53.8418V-0.00201416H60.1887V20.8022H0.00756836ZM53.4111 86.6224H53.4065V76.0812H40.1784V86.6224H30.2297V76.0812H17.0016V127.676H6.78516V29.7777H53.4111V86.6224ZM24.9189 50.1932V61.9858H35.2774V50.1932C35.2774 47.334 32.9561 45.0139 30.0981 45.0139C27.239 45.0139 24.9189 47.334 24.9189 50.1932Z" fill="#6DC99D"/>
<path fill-rule="evenodd" clip-rule="evenodd" d="M76.5269 127.67V76.0757H87.4436V86.6176H97.0685V76.0757H106.526V127.67H76.5269ZM88.9496 98.7413V109.282H95.5636V98.7413H88.9496Z" fill="#6DC99D"/>
<path fill-rule="evenodd" clip-rule="evenodd" d="M55.0737 98.7413H61.6877V109.282H55.0737V98.7413ZM31.896 98.6398H38.5101V109.181H31.896V98.6398ZM40.9866 118.045C40.9866 115.389 43.1429 113.232 45.799 113.232C48.4551 113.232 50.6115 115.389 50.6115 118.045V127.67H40.9866V118.045ZM63.3555 76.0757V86.6176H53.4059V76.0757H63.3555ZM40.1778 76.0757V86.6176H30.2283V76.0757H40.1778Z" fill="#6DC99D"/>
</g>
<defs>
<clipPath id="clip0_948_654">
<rect width="491.077" height="128" fill="white"/>
</clipPath>
</defs>
</svg>
