<svg width="366" height="256" viewBox="0 0 366 256" fill="none" xmlns="http://www.w3.org/2000/svg">
<g clip-path="url(#clip0_865_1956)">
<path fill-rule="evenodd" clip-rule="evenodd" d="M26.764 189.824V253.571C26.764 254.351 26.1314 254.984 25.3507 254.984H18.9387C18.158 254.984 17.5247 254.351 17.5247 253.571V189.824H1.9401C1.15877 189.824 0.526123 189.191 0.526123 188.411V182.297C0.526123 181.517 1.15877 180.884 1.9401 180.884H42.3493C43.13 180.884 43.7633 181.517 43.7633 182.297V188.411C43.7633 189.191 43.13 189.824 42.3493 189.824H26.764Z" fill="#6D8480"/>
<path fill-rule="evenodd" clip-rule="evenodd" d="M98.0791 254.331L79.1612 224.564H72.5539V253.571C72.5539 254.351 71.9205 254.984 71.1399 254.984H64.7279C63.9472 254.984 63.3146 254.351 63.3146 253.571V182.297C63.3146 181.517 63.9472 180.884 64.7279 180.884H87.3431C89.9611 180.884 92.4165 181.378 94.7111 182.364C97.0004 183.351 99.0025 184.698 100.719 186.418C102.437 188.131 103.789 190.144 104.773 192.451C105.758 194.764 106.253 197.224 106.253 199.844V205.604C106.253 208.224 105.758 210.684 104.773 212.997C103.789 215.304 102.437 217.317 100.719 219.031C99.0025 220.751 97.0004 222.104 94.7111 223.084C93.1545 223.751 91.5245 224.197 89.8198 224.411L107.872 252.817C108.148 253.251 108.166 253.797 107.918 254.251C107.669 254.704 107.194 254.984 106.678 254.984H99.2725C98.7885 254.984 98.3384 254.737 98.0791 254.331ZM97.0138 199.844C97.0138 198.451 96.7564 197.157 96.2358 195.957C95.7098 194.744 94.9951 193.677 94.0898 192.757C93.1891 191.844 92.1365 191.124 90.9311 190.604C89.7298 190.078 88.4345 189.824 87.0452 189.824H72.5539V215.624H87.0452C88.4345 215.624 89.7298 215.371 90.9311 214.851C92.1365 214.324 93.1891 213.604 94.0898 212.691C94.9951 211.771 95.7098 210.704 96.2358 209.491C96.7564 208.291 97.0138 206.997 97.0138 205.604V199.844Z" fill="#6D8480"/>
<path fill-rule="evenodd" clip-rule="evenodd" d="M130.725 253.571V182.297C130.725 181.517 131.358 180.884 132.139 180.884H172.25C173.031 180.884 173.664 181.517 173.664 182.297V188.411C173.664 189.191 173.031 189.824 172.25 189.824H139.964V213.491H165.838C166.619 213.491 167.252 214.124 167.252 214.904V221.017C167.252 221.797 166.619 222.431 165.838 222.431H139.964V246.044H172.25C173.031 246.044 173.664 246.677 173.664 247.457V253.571C173.664 254.351 173.031 254.984 172.25 254.984H132.139C131.358 254.984 130.725 254.351 130.725 253.571Z" fill="#6D8480"/>
<path fill-rule="evenodd" clip-rule="evenodd" d="M229.997 230.051V182.297C229.997 181.517 230.63 180.884 231.41 180.884H237.823C238.603 180.884 239.237 181.517 239.237 182.297V253.571C239.237 254.351 238.603 254.984 237.823 254.984H234.443C233.937 254.984 233.463 254.717 233.217 254.277L205.537 205.951V253.571C205.537 254.351 204.903 254.984 204.123 254.984H197.71C196.93 254.984 196.297 254.351 196.297 253.571V182.297C196.297 181.517 196.93 180.884 197.71 180.884H201.043C201.55 180.884 202.017 181.158 202.27 181.591L229.997 230.051Z" fill="#6D8480"/>
<path fill-rule="evenodd" clip-rule="evenodd" d="M286.07 189.824V253.571C286.07 254.351 285.436 254.984 284.656 254.984H278.243C277.463 254.984 276.83 254.351 276.83 253.571V189.824H261.243C260.463 189.824 259.83 189.191 259.83 188.411V182.297C259.83 181.517 260.463 180.884 261.243 180.884H301.656C302.436 180.884 303.07 181.517 303.07 182.297V188.411C303.07 189.191 302.436 189.824 301.656 189.824H286.07Z" fill="#6D8480"/>
<path fill-rule="evenodd" clip-rule="evenodd" d="M365.556 237.071C365.556 239.691 365.063 242.144 364.076 244.437C363.089 246.731 361.743 248.731 360.023 250.444C358.31 252.164 356.303 253.517 354.016 254.497C351.723 255.484 349.263 255.977 346.65 255.977H341.576C338.963 255.977 336.503 255.484 334.19 254.497C331.883 253.517 329.87 252.164 328.15 250.444C326.436 248.731 325.083 246.731 324.103 244.437C323.116 242.144 322.616 239.691 322.616 237.071V198.797C322.616 196.184 323.116 193.724 324.103 191.431C325.083 189.144 326.436 187.138 328.15 185.424C329.87 183.704 331.883 182.351 334.19 181.371C336.503 180.384 338.963 179.891 341.576 179.891H346.65C349.263 179.891 351.723 180.384 354.016 181.371C356.303 182.358 358.31 183.704 360.023 185.424C361.743 187.138 363.089 189.144 364.076 191.431C365.063 193.724 365.556 196.184 365.556 198.797V237.071ZM356.316 198.797C356.316 197.411 356.063 196.111 355.543 194.911C355.016 193.704 354.303 192.651 353.403 191.744C352.503 190.844 351.443 190.131 350.236 189.604C349.036 189.084 347.736 188.831 346.35 188.831H341.876C340.49 188.831 339.19 189.084 337.99 189.604C336.776 190.131 335.71 190.851 334.79 191.751C333.876 192.658 333.156 193.711 332.636 194.911C332.116 196.111 331.856 197.411 331.856 198.797V237.071C331.856 238.457 332.116 239.757 332.636 240.957C333.163 242.164 333.883 243.231 334.796 244.151C335.716 245.064 336.783 245.784 337.99 246.311C339.19 246.831 340.49 247.091 341.876 247.091H346.35C347.736 247.091 349.036 246.831 350.236 246.311C351.443 245.791 352.496 245.071 353.396 244.157C354.296 243.237 355.016 242.171 355.543 240.957C356.063 239.757 356.316 238.457 356.316 237.071V198.797Z" fill="#6D8480"/>
<path fill-rule="evenodd" clip-rule="evenodd" d="M122.159 22.844V0.30603H129.034V6.34314H136.647V11.5744H143.891V5.94083H151.136V0.30603H158.38V5.94083H165.624V11.5744H172.868V5.94083H180.48V0.30603H187.356V22.844H122.159ZM165.678 94.1492H154.9V82.7295H140.57V138.624H129.502V32.5674H180.013V94.1492H180.008V82.7295H165.678V94.1492ZM149.147 54.6841V67.4595H160.368V54.6841C160.368 51.5868 157.854 49.0733 154.758 49.0733C151.66 49.0733 149.147 51.5868 149.147 54.6841Z" fill="#6DC99D"/>
<path fill-rule="evenodd" clip-rule="evenodd" d="M205.056 138.623V82.7292H216.882V94.1496H227.309V82.7292H237.555V138.623H205.056ZM218.513 107.284V118.703H225.679V107.284H218.513Z" fill="#6DC99D"/>
<path fill-rule="evenodd" clip-rule="evenodd" d="M181.815 107.284H188.98V118.703H181.815V107.284ZM156.706 107.174H163.871V118.593H156.706V107.174ZM166.554 128.196C166.554 125.318 168.89 122.982 171.767 122.982C174.645 122.982 176.981 125.318 176.981 128.196V138.623H166.554V128.196ZM190.787 82.7292V94.1496H180.008V82.7292H190.787ZM165.678 82.7292V94.1496H154.899V82.7292H165.678Z" fill="#6DC99D"/>
</g>
<defs>
<clipPath id="clip0_865_1956">
<rect width="366" height="256" fill="white"/>
</clipPath>
</defs>
</svg>
