<svg width="492" height="128" viewBox="0 0 492 128" fill="none" xmlns="http://www.w3.org/2000/svg"><g clip-path="url(#clip0_865_1882)" fill-rule="evenodd" clip-rule="evenodd"><path d="M178.149 39.52v58.843c0 .72-.584 1.304-1.305 1.304h-5.919c-.72 0-1.304-.584-1.304-1.304V39.52h-14.387c-.72 0-1.305-.585-1.305-1.305v-5.643c0-.72.585-1.304 1.305-1.304h37.301c.721 0 1.305.584 1.305 1.304v5.643c0 .72-.584 1.305-1.305 1.305h-14.386zm65.83 59.544l-17.464-27.476h-6.099v26.775c0 .72-.584 1.304-1.305 1.304h-5.918a1.305 1.305 0 01-1.305-1.304v-65.79c0-.72.584-1.305 1.305-1.305h20.876c2.416 0 4.682.455 6.8 1.366 2.113.91 3.962 2.154 5.547 3.741 1.585 1.582 2.833 3.44 3.741 5.57.91 2.135 1.366 4.406 1.366 6.824v5.317c0 2.419-.456 4.69-1.366 6.825-.908 2.129-2.156 3.987-3.741 5.569-1.585 1.588-3.434 2.83-5.547 3.741a16.66 16.66 0 01-4.515 1.225l16.663 26.215a1.306 1.306 0 01-1.101 2.006h-6.836c-.447 0-.862-.227-1.101-.603zm-.984-50.295c0-1.286-.237-2.48-.718-3.587a9.634 9.634 0 00-1.981-2.954 9.252 9.252 0 00-2.916-1.994c-1.108-.48-2.305-.714-3.587-.714h-13.377v23.815h13.377c1.282 0 2.479-.234 3.587-.714a9.25 9.25 0 002.916-1.993 9.633 9.633 0 001.981-2.954c.481-1.108.718-2.302.718-3.588V48.77zm31.118 49.594v-65.79c0-.72.585-1.305 1.305-1.305h37.027c.72 0 1.305.584 1.305 1.304v5.643c0 .72-.585 1.305-1.305 1.305h-29.802v21.846h23.882c.72 0 1.305.578 1.305 1.305v5.643c0 .72-.585 1.304-1.305 1.304h-23.882v21.797h29.802c.72 0 1.305.585 1.305 1.305v5.643c0 .72-.585 1.304-1.305 1.304h-37.027c-.72 0-1.305-.584-1.305-1.304zm91.637-21.711v-44.08c0-.72.584-1.304 1.304-1.304h5.92a1.3 1.3 0 011.299 1.304v65.79a1.3 1.3 0 01-1.299 1.305h-3.119c-.468 0-.905-.246-1.139-.658l-25.544-44.603v43.957c0 .72-.585 1.304-1.305 1.304h-5.92c-.72 0-1.305-.584-1.305-1.304v-65.79c0-.72.585-1.305 1.305-1.305h3.071c.467 0 .904.246 1.132.652l25.6 44.732zm51.753-37.132v58.843a1.3 1.3 0 01-1.298 1.304h-5.92c-.72 0-1.305-.584-1.305-1.304V39.52h-14.387c-.72 0-1.305-.585-1.305-1.305v-5.643c0-.72.585-1.304 1.305-1.304h37.298c.72 0 1.305.584 1.305 1.304v5.643c0 .72-.585 1.305-1.305 1.305h-14.388zm73.379 43.612c0 2.412-.462 4.683-1.367 6.8a17.528 17.528 0 01-9.286 9.286c-2.123.91-4.387 1.366-6.806 1.366h-4.677c-2.412 0-4.689-.456-6.818-1.366a17.383 17.383 0 01-5.575-3.742 17.66 17.66 0 01-3.742-5.544c-.911-2.117-1.366-4.388-1.366-6.8v-35.33c0-2.418.455-4.683 1.366-6.8a17.59 17.59 0 013.742-5.544 17.383 17.383 0 015.575-3.742c2.129-.91 4.406-1.366 6.818-1.366h4.677c2.419 0 4.683.456 6.806 1.366a17.528 17.528 0 019.286 9.286c.905 2.117 1.367 4.382 1.367 6.8v35.33zm-8.53-35.33c0-1.28-.24-2.48-.72-3.587a9.37 9.37 0 00-1.969-2.923 9.498 9.498 0 00-2.923-1.976c-1.114-.48-2.308-.714-3.588-.714h-4.129c-1.286 0-2.48.234-3.587.714a9.731 9.731 0 00-2.954 1.982 9.128 9.128 0 00-1.988 2.917c-.48 1.107-.72 2.307-.72 3.587v35.33c0 1.28.24 2.48.72 3.587a9.289 9.289 0 001.994 2.942 9.43 9.43 0 002.948 2c1.107.48 2.301.72 3.587.72h4.129c1.28 0 2.474-.24 3.588-.72a9.268 9.268 0 002.911-1.988 9.616 9.616 0 001.981-2.954c.48-1.107.72-2.307.72-3.587v-35.33z" fill="#6D8480"/><path d="M.008 20.802V-.002h6.345v5.573h7.028V10.4h6.687V5.2h6.687V-.003h6.686v5.201h6.687v5.2h6.687V5.2h7.027V-.002h6.347v20.804H.008zm53.403 65.82h-.005v-10.54H40.178v10.54H30.23v-10.54H17.002v51.594H6.785V29.778h46.626v56.844zM24.92 50.193v11.793h10.358V50.193c0-2.859-2.32-5.18-5.179-5.18a5.18 5.18 0 00-5.18 5.18zm51.607 77.477V76.076h10.917v10.542h9.624V76.076h9.458v51.594h-30zM88.95 98.741v10.541h6.614v-10.54H88.95z" fill="#6DC99D"/><path d="M55.074 98.741h6.614v10.541h-6.614v-10.54zm-23.178-.101h6.614v10.541h-6.614V98.64zm9.09 19.405a4.815 4.815 0 014.813-4.813 4.815 4.815 0 014.813 4.813v9.625h-9.625v-9.625zm22.37-41.97v10.543h-9.95V76.076h9.95zm-23.178 0v10.543h-9.95V76.076h9.95z" fill="#6DC99D"/></g><defs><clipPath id="clip0_865_1882"><path fill="#fff" d="M0 0h491.077v128H0z"/></clipPath></defs></svg>