<svg width="366" height="256" viewBox="0 0 366 256" fill="none" xmlns="http://www.w3.org/2000/svg"><g clip-path="url(#clip0_865_1956)" fill-rule="evenodd" clip-rule="evenodd"><path d="M26.764 189.824v63.747c0 .78-.633 1.413-1.413 1.413h-6.412a1.414 1.414 0 01-1.414-1.413v-63.747H1.94a1.413 1.413 0 01-1.414-1.413v-6.114c0-.78.633-1.413 1.414-1.413h40.41c.78 0 1.413.633 1.413 1.413v6.114c0 .78-.633 1.413-1.414 1.413H26.764zm71.316 64.507l-18.92-29.767h-6.607v29.007c0 .78-.633 1.413-1.414 1.413h-6.412c-.78 0-1.413-.633-1.413-1.413v-71.274c0-.78.632-1.413 1.413-1.413h22.615c2.618 0 5.073.494 7.368 1.48 2.29.987 4.291 2.334 6.008 4.054 1.718 1.713 3.07 3.726 4.054 6.033.985 2.313 1.48 4.773 1.48 7.393v5.76c0 2.62-.495 5.08-1.48 7.393a18.923 18.923 0 01-10.062 10.087 18.077 18.077 0 01-4.891 1.327l18.052 28.406c.276.434.294.98.046 1.434a1.414 1.414 0 01-1.24.733h-7.406c-.484 0-.934-.247-1.193-.653zm-1.066-54.487c0-1.393-.258-2.687-.778-3.887a10.437 10.437 0 00-2.146-3.2 9.906 9.906 0 00-3.159-2.153c-1.201-.526-2.496-.78-3.886-.78H72.554v25.8h14.491c1.39 0 2.685-.253 3.886-.773a10.04 10.04 0 003.159-2.16c.905-.92 1.62-1.987 2.146-3.2.52-1.2.778-2.494.778-3.887v-5.76zm33.711 53.727v-71.274c0-.78.633-1.413 1.414-1.413h40.111c.781 0 1.414.633 1.414 1.413v6.114c0 .78-.633 1.413-1.414 1.413h-32.286v23.667h25.874c.781 0 1.414.633 1.414 1.413v6.113c0 .78-.633 1.414-1.414 1.414h-25.874v23.613h32.286c.781 0 1.414.633 1.414 1.413v6.114c0 .78-.633 1.413-1.414 1.413h-40.111a1.414 1.414 0 01-1.414-1.413zm99.272-23.52v-47.754c0-.78.633-1.413 1.413-1.413h6.413c.78 0 1.414.633 1.414 1.413v71.274c0 .78-.634 1.413-1.414 1.413h-3.38c-.506 0-.98-.267-1.226-.707l-27.68-48.326v47.62c0 .78-.634 1.413-1.414 1.413h-6.413c-.78 0-1.413-.633-1.413-1.413v-71.274c0-.78.633-1.413 1.413-1.413h3.333c.507 0 .974.274 1.227.707l27.727 48.46zm56.073-40.227v63.747c0 .78-.634 1.413-1.414 1.413h-6.413c-.78 0-1.413-.633-1.413-1.413v-63.747h-15.587c-.78 0-1.413-.633-1.413-1.413v-6.114c0-.78.633-1.413 1.413-1.413h40.413c.78 0 1.414.633 1.414 1.413v6.114c0 .78-.634 1.413-1.414 1.413H286.07zm79.486 47.247c0 2.62-.493 5.073-1.48 7.366-.987 2.294-2.333 4.294-4.053 6.007a18.905 18.905 0 01-6.007 4.053c-2.293.987-4.753 1.48-7.366 1.48h-5.074c-2.613 0-5.073-.493-7.386-1.48a18.906 18.906 0 01-6.04-4.053 18.91 18.91 0 01-4.047-6.007c-.987-2.293-1.487-4.746-1.487-7.366v-38.274c0-2.613.5-5.073 1.487-7.366a19 19 0 014.047-6.007 18.906 18.906 0 016.04-4.053c2.313-.987 4.773-1.48 7.386-1.48h5.074c2.613 0 5.073.493 7.366 1.48 2.287.987 4.294 2.333 6.007 4.053 1.72 1.714 3.066 3.72 4.053 6.007.987 2.293 1.48 4.753 1.48 7.366v38.274zm-9.24-38.274c0-1.386-.253-2.686-.773-3.886a10.298 10.298 0 00-2.14-3.167c-.9-.9-1.96-1.613-3.167-2.14-1.2-.52-2.5-.773-3.886-.773h-4.474c-1.386 0-2.686.253-3.886.773a10.541 10.541 0 00-3.2 2.147 10.03 10.03 0 00-2.154 3.16c-.52 1.2-.78 2.5-.78 3.886v38.274c0 1.386.26 2.686.78 3.886a10.403 10.403 0 002.16 3.194c.92.913 1.987 1.633 3.194 2.16 1.2.52 2.5.78 3.886.78h4.474c1.386 0 2.686-.26 3.886-.78a9.873 9.873 0 003.16-2.154c.9-.92 1.62-1.986 2.147-3.2.52-1.2.773-2.5.773-3.886v-38.274z" fill="#6D8480"/><path d="M122.159 22.844V.306h6.875v6.037h7.613v5.231h7.244V5.941h7.245V.306h7.244v5.635h7.244v5.633h7.244V5.941h7.612V.306h6.876v22.538h-65.197zm43.519 71.305H154.9V82.73h-14.33v55.895h-11.068V32.567h50.511V94.15h-.005V82.73h-14.33v11.42zm-16.531-39.465V67.46h11.221V54.684a5.613 5.613 0 00-5.61-5.61 5.612 5.612 0 00-5.611 5.61zm55.909 83.939V82.729h11.826v11.42h10.427V82.73h10.246v55.894h-32.499zm13.457-31.339v11.419h7.166v-11.419h-7.166z" fill="#6DC99D"/><path d="M181.815 107.284h7.165v11.419h-7.165v-11.419zm-25.109-.11h7.165v11.419h-7.165v-11.419zm9.848 21.022a5.216 5.216 0 015.213-5.214 5.216 5.216 0 015.214 5.214v10.427h-10.427v-10.427zm24.233-45.467v11.42h-10.779V82.73h10.779zm-25.109 0v11.42h-10.779V82.73h10.779z" fill="#6DC99D"/></g><defs><clipPath id="clip0_865_1956"><path fill="#fff" d="M0 0h366v256H0z"/></clipPath></defs></svg>