<svg width="144" height="144" viewBox="0 0 144 144" fill="none" xmlns="http://www.w3.org/2000/svg"><path fill="#fff" d="M0 0h144v144H0z"/><path fill-rule="evenodd" clip-rule="evenodd" d="M25.923 33.291V15.328h5.48v4.811h6.068v4.17h5.774v-4.49h5.774v-4.491h5.773v4.49h5.774v4.49h5.774v-4.49h6.068v-4.49h5.48V33.29H25.923zm46.113 56.834h-.004v-9.102H60.61v9.102h-8.59v-9.102H40.596v44.55h-8.821V41.041h40.26v49.084zM47.434 58.669v10.183h8.944V58.669a4.474 4.474 0 00-4.472-4.472 4.474 4.474 0 00-4.472 4.472zm44.562 66.903v-44.55h9.426v9.103h8.311v-9.103h8.166v44.55H91.996zm10.726-24.978v9.101h5.711v-9.101h-5.711z" fill="#6DC99D"/><path fill-rule="evenodd" clip-rule="evenodd" d="M73.472 100.594h5.71v9.101h-5.71v-9.101zm-20.014-.088h5.711v9.102h-5.71v-9.102zm7.85 16.755a4.157 4.157 0 014.155-4.155 4.157 4.157 0 014.156 4.155v8.311h-8.311v-8.311zm19.315-36.239v9.103H72.03v-9.103h8.592zm-20.014 0v9.103h-8.59v-9.103h8.59z" fill="#6DC99D"/></svg>