<svg width="144" height="144" viewBox="0 0 144 144" fill="none" xmlns="http://www.w3.org/2000/svg">
<rect width="144" height="144" fill="white"/>
<path fill-rule="evenodd" clip-rule="evenodd" d="M25.9233 33.2913V15.3275H31.4027V20.1393H37.471V24.3089H43.2449V19.8187H49.0187V15.3275H54.7925V19.8187H60.5664V24.3089H66.3402V19.8187H72.4076V15.3275H77.8879V33.2913H25.9233ZM72.0356 90.125H72.0316V81.0229H60.6096V90.125H52.0192V81.0229H40.5972V125.573H31.7756V41.0413H72.0356V90.125ZM47.4335 58.6694V68.852H56.3777V58.6694C56.3777 56.2007 54.3734 54.1973 51.9056 54.1973C49.4369 54.1973 47.4335 56.2007 47.4335 58.6694Z" fill="#6DC99D"/>
<path fill-rule="evenodd" clip-rule="evenodd" d="M91.9956 125.572V81.0225H101.422V90.1251H109.733V81.0225H117.899V125.572H91.9956ZM102.722 100.594V109.695H108.433V100.594H102.722Z" fill="#6DC99D"/>
<path fill-rule="evenodd" clip-rule="evenodd" d="M73.4715 100.594H79.1826V109.695H73.4715V100.594ZM53.4583 100.506H59.1694V109.608H53.4583V100.506ZM61.3078 117.261C61.3078 114.968 63.1697 113.106 65.4632 113.106C67.7566 113.106 69.6186 114.968 69.6186 117.261V125.572H61.3078V117.261ZM80.6226 81.0225V90.1251H72.0315V81.0225H80.6226ZM60.6094 81.0225V90.1251H52.0183V81.0225H60.6094Z" fill="#6DC99D"/>
</svg>
